<svg xmlns="http://www.w3.org/2000/svg" fill-rule="evenodd" stroke-linejoin="round" stroke-miterlimit="2" clip-rule="evenodd" viewBox="0 0 256 256"><defs/><path fill-rule="nonzero" d="M237.699 18.281H18.285C8.186 18.281 0 26.458 0 36.557v182.878c0 10.09 8.186 18.284 18.285 18.284h219.414c10.083 0 18.301-8.202 18.301-18.284V36.557c0-10.099-8.218-18.276-18.301-18.276zm0 201.162H18.285V64.195h219.414v155.248zM102.486 101.769l-58.72-26.852v12.944l45.412 19.411v.251l-45.412 19.403v12.935l58.72-26.851v-11.241zm59.627-.551h-31.981v12.335h31.981v-12.335zM59.433 32.01a9.132 9.132 0 019.142 9.142c0 5.05-4.101 9.118-9.142 9.118-5.074 0-9.167-4.068-9.167-9.118 0-5.073 4.093-9.142 9.167-9.142zm-27.443 0a9.12 9.12 0 019.134 9.142c0 5.05-4.085 9.118-9.134 9.118-5.058 0-9.151-4.068-9.151-9.118a9.129 9.129 0 019.151-9.142z"/></svg>